<svg width="39" height="39" viewBox="0 0 39 39" fill="none" xmlns="http://www.w3.org/2000/svg">
<path d="M28.75 8.92857H31.3929M11.5714 1H27.4286C30.2323 1 32.9212 2.11377 34.9037 4.0963C36.8862 6.07883 38 8.76771 38 11.5714V27.4286C38 30.2323 36.8862 32.9212 34.9037 34.9037C32.9212 36.8862 30.2323 38 27.4286 38H11.5714C8.76771 38 6.07883 36.8862 4.0963 34.9037C2.11377 32.9212 1 30.2323 1 27.4286V11.5714C1 8.76771 2.11377 6.07883 4.0963 4.0963C6.07883 2.11377 8.76771 1 11.5714 1ZM19.5 27.4286C17.3972 27.4286 15.3805 26.5932 13.8937 25.1063C12.4068 23.6195 11.5714 21.6028 11.5714 19.5C11.5714 17.3972 12.4068 15.3805 13.8937 13.8937C15.3805 12.4068 17.3972 11.5714 19.5 11.5714C21.6028 11.5714 23.6195 12.4068 25.1063 13.8937C26.5932 15.3805 27.4286 17.3972 27.4286 19.5C27.4286 21.6028 26.5932 23.6195 25.1063 25.1063C23.6195 26.5932 21.6028 27.4286 19.5 27.4286Z" stroke="white" stroke-width="2"/>
</svg>
